<svg xmlns="http://www.w3.org/2000/svg" viewBox="0 0 115.19 117.23"><defs><style>.cls-1{fill-rule:evenodd;}</style></defs><g id="Livello_2" data-name="Livello 2"><g id="Layer_1" data-name="Layer 1"><path class="cls-1" d="M114,50.57a1.53,1.53,0,0,1-.37.21,11.54,11.54,0,0,1-1.54.27,2.58,2.58,0,0,0-.83.19c-.22.09-.45.16-.67.23-.58.17-1.16.33-1.73.53a3.9,3.9,0,0,1-1.06.25,1,1,0,0,0-.77.31,1,1,0,0,1-.42.21,2.85,2.85,0,0,0-1.24.56.53.53,0,0,1-.25.12c-.23.06-.47.09-.7.15a3,3,0,0,1-1.63.2c-.07,0-.16.05-.23,0-.27-.05-.58,0-.68-.38,0-.06-.16-.08-.32-.15l.15.44a1.29,1.29,0,0,1-1.17.12.81.81,0,0,0-.76.05c-.27.19-.52,0-.78.06s-.4-.3-.57-.5a6.59,6.59,0,0,1,.4-.85,12.57,12.57,0,0,1,1.51-2.12,1.46,1.46,0,0,0,.37-.65,4,4,0,0,1,.52-1.06,1.26,1.26,0,0,0,.13-.34l-.1,0a2.13,2.13,0,0,0-.57,1,.86.86,0,0,1-.55.72.69.69,0,0,0-.4.37,7.22,7.22,0,0,1-1.22,1.73c-.19.23-.45.39-.66.61s-.15.37-.28.41c-.36.14-.46.46-.64.72a1.23,1.23,0,0,1-.91.56c-.32,0-.61-.23-.95-.2,0,0-.08-.09-.12-.15-.18-.28-.37-.55-.54-.84s-.33-.58-.5-.87c-.71-.15-.71-.15-.94-.8a.58.58,0,0,0,0-.14c-.12-.14-.27-.26-.45-.13a.91.91,0,0,1-.86,0c-.31-.08-.34-.17-.31-.47A1.59,1.59,0,0,1,92,50a1.1,1.1,0,0,0,.3-.35c.12-.26,0-.39-.26-.4a1.91,1.91,0,0,0-.5.12c-.38.13-.7,0-.79-.35a1.16,1.16,0,0,1,0-.69,1.59,1.59,0,0,1,.45-.61c.35-.31.29-.75.43-1.12.06-.18-.16-.37-.27-.28-.26.21-.57.17-.86.25a3.48,3.48,0,0,0-1.09.71,1.19,1.19,0,0,1-.91.14c-.18,0-.24-.19-.19-.37a1.4,1.4,0,0,1,.16-.29l1.62-2.47c0-.07.1-.16.15-.17.27,0,.4-.23.59-.36a2.33,2.33,0,0,0,1-1.22.49.49,0,0,1,.1-.15L93.43,41s.07-.11.11-.15c.41-.46.82-.92,1.24-1.37s.76-.76,1.11-1.17.28-.68.63-.87c.06,0,.07-.17.1-.26a1.13,1.13,0,0,1,.67-.8.92.92,0,0,0,.47-.32,1.52,1.52,0,0,1,1.16-.54,1.8,1.8,0,0,0,.77-.21,9.58,9.58,0,0,0,1.2-1c.48-.44.7-1.14,1.37-1.41.08,0,.12-.15.19-.21s.33-.38.53-.45a4.74,4.74,0,0,0,1.62-1.06.83.83,0,0,1,.69-.34.5.5,0,0,0,.38-.17c.5-.52,1.22-.8,1.58-1.47,0,0,0,0,.07-.06a5.77,5.77,0,0,1,1.5-1.15,2.43,2.43,0,0,0,.76-.77,1.65,1.65,0,0,1,.3-.29l1.05-.87c-.28-.06-.36-.23-.37-.53l-.45.37c-.08.07-.15.17-.23.23l-1.3,1.05c-.16.13-.3.33-.48.4a1.51,1.51,0,0,0-.58.47,6.16,6.16,0,0,1-.8.74A8.5,8.5,0,0,0,105.13,30a2.17,2.17,0,0,1-.78.61,10.22,10.22,0,0,0-1.27.74c-.29.18-.53.43-.83.6a3.83,3.83,0,0,1-1,.59c-.1,0-.18.13-.25.21a1.54,1.54,0,0,1-1,.57,2.49,2.49,0,0,0-1.16.51,4.07,4.07,0,0,0-1.37,1.21c-.19.29-.46.51-.41,1a.73.73,0,0,0-.75.11L95.15,37c-.26.2-.54.39-.81.58s-.74.31-.86.77c0,.09-.14.17-.23.24s-.4.17-.62,0a4.31,4.31,0,0,0-.37-.37c-.3-.25-.29-.47,0-.71a2.08,2.08,0,0,0,.37-.41c.16-.22.31-.46.5-.73,0-.05-.05-.16-.1-.35a1.6,1.6,0,0,1-1,.8.8.8,0,0,1-.85-.1c-.27-.23-.25-.41.07-.57s.41-.3.37-.7-.27-1,.27-1.34c0,0,0,0,0-.09,0-.22.21-.29.38-.39s.44-.25.65-.39a.31.31,0,0,0,.14-.45.62.62,0,0,1,.09-.71c.23-.38.5-.73.75-1.09.08-.12.22-.23.23-.36a2.63,2.63,0,0,1,.6-1.16,12.24,12.24,0,0,0,1.66-3.26,2.4,2.4,0,0,1,.66-1A2.83,2.83,0,0,0,97.88,24L97,23.59a4.94,4.94,0,0,1-.3.62,4,4,0,0,1-.56.52l-.12.14c-.28.31-.55.62-.83.91a1,1,0,0,1-.38.29c-.13,0-.3,0-.53-.08l.31.42a1.94,1.94,0,0,1-.21.29c-.34.31-.71.59-1,.91a5.83,5.83,0,0,0-.9,1c-.23.39-.35.83-.87.91l0,0a5.18,5.18,0,0,1-1.32,1.05c-.55.36-.87,1.05-1.59,1.2,0,0,0,0,0,0a2.39,2.39,0,0,1-1.42.71,6.93,6.93,0,0,1-.87.22,2,2,0,0,0-.91.21c-.38.19-.83.25-1.11.61-.07.09-.24.1-.43.16a2,2,0,0,1,0-.53.58.58,0,0,0-.06-.54c-.11-.15-.05-.29.06-.43.23-.29.44-.59.67-.87a2,2,0,0,1,.35-.22,2.83,2.83,0,0,1,0,.43.39.39,0,0,0,.19.49.44.44,0,0,0,.53,0c.2-.14.4-.26.6-.39a1.43,1.43,0,0,0-.11-.84c-.11-.39-.3-.8.1-1.15,0,0,0-.11,0-.17s0-.25,0-.37a2.37,2.37,0,0,1,.48-1.23c.28-.36.06-.85.36-1.19a.32.32,0,0,0,0-.07l-.22-.13a.59.59,0,0,0-.13,0c-.34.44-.52.47-.88.12a.53.53,0,0,0-.42-.17.53.53,0,0,1-.33,0,.85.85,0,0,0-.82,0,1.22,1.22,0,0,1-1.54-.55.57.57,0,0,0-.25-.26.35.35,0,0,1-.19-.44,2.59,2.59,0,0,1-1.51-1,2.31,2.31,0,0,0-.71-.68,8.9,8.9,0,0,1-1-.94c-.18-.19-.3-.44-.47-.65a1.58,1.58,0,0,1-.38-.79c-.06-.34,0-.66,0-1a6.22,6.22,0,0,1,.09-1.83,12.1,12.1,0,0,0,.08-1.59,10.71,10.71,0,0,1,.11-1.61,5.44,5.44,0,0,0,0-1.21,12,12,0,0,1,0-1.47,2.48,2.48,0,0,0,0-.38,6.38,6.38,0,0,1,0-1.95,3.52,3.52,0,0,1,.19-.64,2.36,2.36,0,0,1,.45.12c.26.14.42.1.53-.17s.23-.2.38-.1a7.25,7.25,0,0,1,.73.5.38.38,0,0,0,.51,0,.48.48,0,0,0,.24-.53c0-.12-.07-.27,0-.36.14-.28,0-.41-.19-.57s-.4-.45-.61-.66-.25-.23-.35-.36c-.25-.32-.7-.46-.81-.91,0,0,0-.1-.07-.11-.43-.14-.34-.49-.34-.79a1.84,1.84,0,0,0-.57-1.29c-.08,0-.15.06-.16.09a2.69,2.69,0,0,1-.29,1A1.31,1.31,0,0,1,78,6.48a.73.73,0,0,0,0,.33,1.49,1.49,0,0,1-.36,1,2,2,0,0,0-.26.45c-.12.37-.23.75-.33,1.13s-.22.32-.39.12S76.23,9,76,8.65a2.06,2.06,0,0,0-.39.24c-.1.09-.16.21-.31.16S75,8.93,75,8.72a.81.81,0,0,0-.11-.26c-.31.66-.42,1.38-1.15,1.72-.33.15-.49.09-.58-.26a12.14,12.14,0,0,0-.36-1.17c-.11-.33-.24-.65-.37-1-.05-.15-.13-.29-.17-.44-.17-.55-.32-1.11-.48-1.67a.32.32,0,0,1,0-.09,1.55,1.55,0,0,0-.18-1c-.07-.12-.11-.3-.3-.26s-.17.21-.16.35c0,.4.07.79.08,1.19a1.4,1.4,0,0,1,0,.65,1.31,1.31,0,0,0-.09.58,2.38,2.38,0,0,1-.23.61.36.36,0,0,0,0,.23,7.89,7.89,0,0,0,.71,1.63,5,5,0,0,1,.46.7.85.85,0,0,1-.52,1.28l-.31.11a.61.61,0,0,1-.73-.21c-.22-.32-.6-.57-.55-1a.2.2,0,0,0,0-.13c-.19-.17-.16-.4-.2-.62a1.64,1.64,0,0,0-.82-1.36,7,7,0,0,1-1.24-.73l0,0c-.35-.25-.8-.4-.87-.93,0-.08-.13-.16-.21-.23l-.31-.28c-.31-.28-.63-.54-.92-.83a8.42,8.42,0,0,1-.63-.71c-.2-.25-.39-.52-.6-.79-.22.19-.49.25-.46.47A10.77,10.77,0,0,1,64.78,5c.34.32.85.51.93,1.06a.09.09,0,0,0,.06.07c.43.16.56.58.79.9.12.15.26.28.38.43a.62.62,0,0,1,.14.23.76.76,0,0,0,.46.51,3.72,3.72,0,0,1,.9.6A5.82,5.82,0,0,1,69.3,10a1.43,1.43,0,0,1,.29,1.12.81.81,0,0,0,.06.63c.21.42.16.58-.17.93-.07.07-.13.16-.21.25a1.1,1.1,0,0,1,.42.8,6.45,6.45,0,0,0,.21,1c.07.35-.05.52-.39.55a2.05,2.05,0,0,1-1.9-.77,4.17,4.17,0,0,0-.42-.41c-.09.22-.16.36-.2.5a.28.28,0,0,1-.4.22,1.06,1.06,0,0,1-.33-.18,9.15,9.15,0,0,1-.85-.8.9.9,0,0,1-.26-.5c0-.14.12-.3.18-.44a2.28,2.28,0,0,0-1.44-1,.77.77,0,0,1-.57-.78.52.52,0,0,0-.21-.49.54.54,0,0,1-.24-.52c0-.08-.08-.2-.15-.27s-.37-.32-.61-.53c.06.26.1.48.15.69a1.23,1.23,0,0,0,.16.43c.08.13.11.23,0,.34s-.23.06-.34,0l-1.32-1.3a1.28,1.28,0,0,0-.26-.2c-.68-.36-1.41-.65-2-1.07A16.57,16.57,0,0,1,56,6.41,1.6,1.6,0,0,0,55.18,6a.47.47,0,0,0,.2.25,3.8,3.8,0,0,1,1.23.95,4.41,4.41,0,0,0,1.26,1,10.84,10.84,0,0,1,1.3.86,6.15,6.15,0,0,1,1.21,1,6.56,6.56,0,0,0,.83.76,1.21,1.21,0,0,1,.21.25,1.84,1.84,0,0,0,.95.83c.38.16.65.42.49.89,0,.06,0,.15,0,.18.19.24.07.49,0,.74s0,.66-.06,1,0,.61-.13.78a2.7,2.7,0,0,0-.49,1.06.35.35,0,0,1-.38.28,1.55,1.55,0,0,1-1.3-.53,4.78,4.78,0,0,0-1-1,3.89,3.89,0,0,1-.82-.63,1.68,1.68,0,0,0-.76-.45,6.12,6.12,0,0,1-1.53-.72,3.3,3.3,0,0,0-1.29-.56,1.2,1.2,0,0,1-1-.63,1,1,0,0,0-.86-.51,2,2,0,0,1-.72-.22c-.36-.21-.68-.48-1-.71a16.53,16.53,0,0,0-1.8-1.13A1.74,1.74,0,0,0,49,9.34c-.09,0-.19-.1-.28-.16l-.86-.68a2.11,2.11,0,0,0-.33-.18c-.16-.08-.28,0-.38.13a.29.29,0,0,0,0,.39.55.55,0,0,0,.46.29,3.43,3.43,0,0,1,1.5.56c.54.3,1.07.61,1.6.93s1,.55,1.14,1.16l.13,0a2.38,2.38,0,0,1,1.12.47,3.5,3.5,0,0,0,1.24.74,7.91,7.91,0,0,1,1,.52l.36.21a14.48,14.48,0,0,1,2.49,1.17,5.93,5.93,0,0,1,1.44,1.43,2.42,2.42,0,0,0,1.11.82c.42.19.82.45,1.17.64-.05.39-.1.7-.12,1s0,.79,0,1.19-.06.54-.52.39L61,20.32c-.41-.12-.83-.21-1.22-.36a11.2,11.2,0,0,1-1.1-.54.27.27,0,0,1-.11-.15,2.81,2.81,0,0,1-.29-1.1.74.74,0,0,0-.33-.69c-.57.39,0,.77,0,1.15-.06,0-.12.05-.15,0-.39-.26-.86-.39-1.15-.8a1,1,0,0,0-.77-.52.41.41,0,0,1-.38-.31.43.43,0,0,0-.11-.21A14,14,0,0,0,54,15.76a1.43,1.43,0,0,1-.65-.66c-.08-.2-.19-.34-.42-.31a.76.76,0,0,1-.63-.29,6.41,6.41,0,0,0-1.24-1,1.58,1.58,0,0,1-.56-.49,1.6,1.6,0,0,0-1-.78c-.1,0-.17-.14-.25-.2a2.69,2.69,0,0,0-.27-.2l-.82-.47a1.54,1.54,0,0,0-.34-.17,4.86,4.86,0,0,1-1.15-.49c-.24-.12-.47-.34-.73-.36-.49-.06-.85-.22-.94-.74l-.78,0h-.1a.44.44,0,0,0-.36.66,8,8,0,0,0,.57.73,1,1,0,0,1,1.36.08.81.81,0,0,0,.38.16,8.21,8.21,0,0,1,1,.21c.54.21,1.06.48,1.58.74.15.07.26.2.4.26a3.76,3.76,0,0,1,1.54,1.36,2.05,2.05,0,0,0,.81.79,1,1,0,0,1,.59.55,2,2,0,0,0,.58.73,10,10,0,0,0,1,.49,1.8,1.8,0,0,1,.55.48c.35.43.75.81,1.13,1.22a2.91,2.91,0,0,1,.26.33l.77,1.24a.65.65,0,0,0,.22.18l.53.38a1.75,1.75,0,0,0,.51.34,1.84,1.84,0,0,1,1.3,1.08,3.54,3.54,0,0,1,.51,1.8,1.8,1.8,0,0,0,.2.81c.21.46.49.89.7,1.36s.43,1.12.64,1.68a.27.27,0,0,1-.25.38,6,6,0,0,1-1,.05,5.1,5.1,0,0,1-1.5-.59.78.78,0,0,1-.58-.82s0-.06-.06-.11a2.86,2.86,0,0,0-.52-.16,1.19,1.19,0,0,1-.85-.48,5.54,5.54,0,0,0-.74-.79,1.91,1.91,0,0,1-.45-.72,1,1,0,0,0-.7-.62,1,1,0,0,0,.56,1.08.69.69,0,0,1,.18.16c.14.17.1.35-.11.54a.3.3,0,0,1-.46,0,1.42,1.42,0,0,1-.44-.77c-.07-.49-.34-.65-.84-.58a2.92,2.92,0,0,0-.56-.69c-.68-.45-1-1.25-1.63-1.7a.31.31,0,0,1-.11-.16,4.43,4.43,0,0,1-.42-1.05,4.15,4.15,0,0,0-1-1.8,11,11,0,0,1-.77-.95,3.52,3.52,0,0,0-.8-.91,7.58,7.58,0,0,1-.79-.91,3.42,3.42,0,0,1-.68-1.5c0-.23-.1-.47-.41-.5-.07,0-.15-.12-.19-.2-.14-.28-.27-.57-.4-.85a.72.72,0,0,0-.55-.42c0,.12-.11.27-.07.34a2.25,2.25,0,0,0,.54.77,1,1,0,0,1,.45.53,5.65,5.65,0,0,0,1,2c.25.37.51.72.77,1.07s.44.55.63.84.5.84.74,1.27.39.83.62,1.22a1.16,1.16,0,0,1,.13.92,2,2,0,0,0,.06,1.61.55.55,0,0,1,.06.18,9.75,9.75,0,0,0,.75,2.29,11.57,11.57,0,0,0,1.08,1.78,1.41,1.41,0,0,1,.3,1.61c-.28.12-.71-.18-.92.31a2.51,2.51,0,0,0,.22.43c.12.18.36.35.36.51s-.23.35-.37.51-.09.08-.14.13a2,2,0,0,1-.88-.86,3.62,3.62,0,0,0-.81-.93,1.24,1.24,0,0,0-.21-.19c-.27-.16-.11-.45-.19-.66s.13-.19.18-.29.16-.27.13-.39a1.39,1.39,0,0,1,.07-1c0-.06,0-.18,0-.27a2.49,2.49,0,0,1,.07-1.3c0-.13.16-.27,0-.38a.43.43,0,0,0-.53-.09.88.88,0,0,0-.25.26.86.86,0,0,0,0,.65c.07.33-.34.76-.53.59s-.5-.16-.75-.19-.43-.05-.53-.3.05-.39.2-.54,0-.05,0-.09-.09-.08-.11-.07c-.33.28-.6.12-.86-.12a1.42,1.42,0,0,0-.23-.14l-.37.24a7,7,0,0,0-.74-.31.37.37,0,0,0-.51.27,1.09,1.09,0,0,1-.89.72,3.25,3.25,0,0,1-.36,0,7.58,7.58,0,0,1-.16,2.73c-.32.07-.45-.24-.72-.38-.07.17-.13.3-.19.43a5.83,5.83,0,0,0,.72.47.81.81,0,0,1,.48.61,6.45,6.45,0,0,1,.13,1,3.61,3.61,0,0,1,0,1.5.93.93,0,0,0,0,.37c.05.36.12.72.18,1.08a.42.42,0,0,1-.25.52c-.25-.09-.5-.21-.75-.28A1.94,1.94,0,0,1,40.8,32a1,1,0,0,0-.15-.19l-.34.21a1,1,0,0,1-1.06-.19A17.45,17.45,0,0,0,37,30.71c.24.42-.15.39-.26.62a4.67,4.67,0,0,0,.49.27.71.71,0,0,1,.47.52c.11.39.28.76.42,1.13a3.43,3.43,0,0,1,.25.72,1.57,1.57,0,0,0,.58,1.14c.06,0,.07.17.08.26s-.13.48-.11.67c0,.38-.15.39-.41.4l.27.31c-.34.35-.5.85-1,1a.91.91,0,0,0-.67.67,3.29,3.29,0,0,1-.17.39,1.18,1.18,0,0,1-1.52.69,3.6,3.6,0,0,0-.79-.12c-.46-.05-.92-.06-1.37-.14a.47.47,0,0,0-.54.18.41.41,0,0,0,0,.53c.17.23.35.45.53.68s.2.47-.16.62c-.06,0-.14,0-.16.08a.44.44,0,0,0,0,.29c0,.06.15.11.23.12s.14-.08.21-.11a5.21,5.21,0,0,1,2-.73.27.27,0,0,0,.18,0c.2-.25.46-.16.7-.12a2.47,2.47,0,0,0,.94,0,1.24,1.24,0,0,1,.43,0,.49.49,0,0,1,.29.54c0,.22-.18.27-.39.23a2.93,2.93,0,0,0-1.35.09c-.66.17-1.3.39-1.94.62a1.62,1.62,0,0,1-.84.1,1.07,1.07,0,0,0-.93.27,1.47,1.47,0,0,1-.41.22,8.8,8.8,0,0,0-1.9.8c-.26.16-.59.21-.87.36-.51.27-1,.59-1.51.88a6,6,0,0,1-.75.4,3,3,0,0,0-1.29.64c-.06.06-.17.08-.25.13-.33.19-.66,0-1,0a4.63,4.63,0,0,1-2.07-.45.9.9,0,0,0-1,.19.74.74,0,0,1-.58.25,2,2,0,0,0-.33.11l.4.37c.27,0,.49-.16.66-.11a5.18,5.18,0,0,0,1.65.35,3.69,3.69,0,0,1,.46.08c.29,0,.59.06.89.07a1.81,1.81,0,0,0,.56-.06c.33-.08.66-.19,1-.29a1.56,1.56,0,0,1,.44-.13,3,3,0,0,0,1.28-.35,3.13,3.13,0,0,1,.68-.2,6.88,6.88,0,0,1,1.69-.23.47.47,0,0,0,.22-.07l1.41-.44a.39.39,0,0,1,.52.2.68.68,0,0,1,.1.59,2.17,2.17,0,0,0-.13.5c-.07.52,0,.62.47.86a1.64,1.64,0,0,1,.26.2.91.91,0,0,1,.21.91.75.75,0,0,1-.7.31l-.19-.05c-.15,0-.28,0-.34.18a.24.24,0,0,1-.09.16,11.22,11.22,0,0,1-1.11.63c-.88.4-1.78.75-2.67,1.14-.2.09-.36.25-.56.35a6.3,6.3,0,0,1-1.52.74,2,2,0,0,0-.7.41.31.31,0,0,0-.1.23s.13.11.18.11a2,2,0,0,0,.6-.14,6.26,6.26,0,0,1,1.31-.68,1,1,0,0,0,.4-.25,7.33,7.33,0,0,1,2-1l.73-.33a1,1,0,0,1,.34-.13,4.94,4.94,0,0,1,.75.14,1,1,0,0,1,.79.68.36.36,0,0,1,0,.3s-.17,0-.25,0-.11-.07-.17-.09c-.27-.12-.4-.08-.62.22.13.31.46.32.79.46a2.87,2.87,0,0,1-.27.35c-.34.32-.92.26-1.19.71,0,0-.16,0-.23,0-.31.14-.67.19-.9.49l2.23-.77c0,.14.07.32,0,.42a6.21,6.21,0,0,1-.52.63.57.57,0,0,0-.11.25,3.84,3.84,0,0,1-.45,1.18c-.15.24-.27.5-.41.74,0,.07-.09.18-.14.18-.52.05-.67.46-.85.84a.35.35,0,0,1-.05.08,5.87,5.87,0,0,0-.38.75c-.2.61-.39,1.21-1.06,1.47l0,0a.26.26,0,0,0-.12.33c.06.19.15.35.4.36a2.12,2.12,0,0,1,.2-.24,3.64,3.64,0,0,0,.94-1.44c.05-.16.19-.22.36-.26.63-.12.64-.15.45-.79a.86.86,0,0,1-.05-.23c0-.28,0-.51.32-.66a1.77,1.77,0,0,0,.69-.54,2.61,2.61,0,0,1,.8-.72,9.88,9.88,0,0,1,1.08-.6s.1.12.09.19a2.85,2.85,0,0,1-.14.5,6.61,6.61,0,0,0-.38.92c-.15.63-.24,1.28-.37,1.92a.38.38,0,0,1-.17.25,2.65,2.65,0,0,0-1,1.07,1.09,1.09,0,0,0-.08.6c0,.34.36.29.62.31a1.5,1.5,0,0,0,.06.33c.05.09.16.14.23.22s.08.88-.21.93-.37.3-.43.54-.09.56-.14.85-.11.28-.24.21c-.34-.18-.69,0-1-.09a12.79,12.79,0,0,0-1.52-.06c-.19,0-.35.06-.37.28a.36.36,0,0,0,.38.4,4.36,4.36,0,0,0,1.08-.11,3.53,3.53,0,0,1,1.24.07,1.91,1.91,0,0,1-.26.48,2,2,0,0,0-.51,1.24c-.07.42-.14.89-.69,1.05.12.34.23.65.36,1,.06-.16.1-.24.13-.33.15-.58.27-1.17.46-1.74a8.63,8.63,0,0,1,.55-1.25c.22-.44.44-.56,1-.42s1,.2,1.49.28c.19,0,.34.1.36.31a2.49,2.49,0,0,1,0,.61c0,.2-.11.39-.12.6,0,.6-.16,3.42-.2,4.23a2.23,2.23,0,0,1,0,.23c-.1.38-.25.75-.31,1.13a3.52,3.52,0,0,1-.77,1.89,2.48,2.48,0,0,0-.22.4.68.68,0,0,1,.26.84s0,.06,0,.09c0,.49,0,1-.06,1.47a1.37,1.37,0,0,1-.42,1,3,3,0,0,1-1.09.73c-.12,0-.21.15-.3.23s-.14.18-.24.23c-.86.42-1.52,1.14-2.33,1.62-.56.33-1.11.69-1.69,1a3.63,3.63,0,0,0-1.38,1.07,2.53,2.53,0,0,0,.56-.23c.56-.36,1.09-.77,1.66-1.11s.83-.26.94.35a.56.56,0,0,0,.07.18.48.48,0,0,0,.52.15.4.4,0,0,0,.14-.5.81.81,0,0,0-.24-.21c-.36-.24-.38-.55-.05-.8a7.28,7.28,0,0,0,.71-.47,12.06,12.06,0,0,1,1.65-1.18.83.83,0,0,1,.49-.14c.28,0,.37.17.21.4a1.68,1.68,0,0,1-.24.29c-.17.15-.15.28,0,.46s.33.61.51.94c-.34.14-.62.24-.89.36a1.83,1.83,0,0,0-.42.21c-.33.24-.65.5-1,.76a.6.6,0,0,0-.14.21c.09,0,.19.15.26.13.24,0,.51,0,.65-.31.07-.14.27-.21.42-.3a3.3,3.3,0,0,1,.45-.26,2.8,2.8,0,0,1,1.52-.59.37.37,0,0,0,.3-.12c.32-.39.82-.43,1.24-.64s.58,0,.57.42c0,.15,0,.3-.07.48.22.07.4.11.57.18a.63.63,0,0,1,.37.65c-.07.2-.22.26-.56.21h-.1c-.37-.06-.37-.06-.52.38l.37.41-.64,1,.08.06c.19-.23.37-.46.56-.68a.44.44,0,0,1,.64-.12.31.31,0,0,0,.21,0,.47.47,0,0,1,.55.28.49.49,0,0,1-.2.59,2.13,2.13,0,0,0-.38.56c-.17.32-.24.65-.38,1a8.19,8.19,0,0,1-.93,1.36c-.46.63-1,1.23-1.4,1.86a2,2,0,0,0-.34.73c-.13.48-.13,1-.55,1.38a.57.57,0,0,0-.12.26,1.37,1.37,0,0,1-.54.75.49.49,0,0,0-.22.49,1.1,1.1,0,0,1-.2.76,4.88,4.88,0,0,1-.91,1,15.6,15.6,0,0,0-1.93,2.29,14.86,14.86,0,0,1-1.23,1.52,5.93,5.93,0,0,0-1,1.11,1.58,1.58,0,0,1-.64.64,3.25,3.25,0,0,0-1,.94,10.35,10.35,0,0,1-1.21,1.18c-.29.29-.63.52-.93.79a6.41,6.41,0,0,1-1.93,1.45.73.73,0,0,0-.34.37c-.11.19,0,.35.18.46.55.27.77.12.94-.39a2.25,2.25,0,0,1,.9-1.11c.16-.12.31-.23.45-.35.49-.44.8-1.07,1.41-1.39,0,0,.08-.1.12-.15a3.79,3.79,0,0,1,.38-.42,6.8,6.8,0,0,1,1.46-1.27c.3-.52.94-.75,1.18-1.34a.77.77,0,0,1,.36-.3,1.47,1.47,0,0,0,.51-.48,9.49,9.49,0,0,1,1.38-1.94,2.17,2.17,0,0,1,.86-.61,1.23,1.23,0,0,0,.69-.42l.44-.57s.11-.11.1-.15c-.12-.37.21-.5.38-.7s.31-.25.4-.41a2.18,2.18,0,0,1,1-.86,1,1,0,0,1,.41-1,1.72,1.72,0,0,0,.24-.34,3.62,3.62,0,0,1,.22-.32.23.23,0,0,1,.4,0,.61.61,0,0,1,.11.4,3,3,0,0,1-.25.76,1.92,1.92,0,0,0-.28,1,4.31,4.31,0,0,1-1.19,3,.85.85,0,0,0-.23.6,1.81,1.81,0,0,1-.12.55,4.69,4.69,0,0,0-.24.81,1,1,0,0,1-.27.64c-.31.32-.61.65-.89,1-.45.54-.83,1.15-1.33,1.65a15.11,15.11,0,0,0-1.3,1.79,2,2,0,0,1-.53.59.93.93,0,0,0-.4,1.07.27.27,0,0,0,.2.16.42.42,0,0,0,.24-.1s0-.12.05-.18a2.12,2.12,0,0,1,.66-1.37.19.19,0,0,0,.07-.12A4.83,4.83,0,0,1,29.26,100a9.87,9.87,0,0,0,1.12-1.29.82.82,0,0,1,.65-.39c.3,0,.42.24.54.47a4.63,4.63,0,0,1,.27,1.38,1.74,1.74,0,0,1-.52,1.69,2.17,2.17,0,0,0-.41.58,10.35,10.35,0,0,0-1,1.91,1.34,1.34,0,0,1-.22.36l-1.83,2.78a4.1,4.1,0,0,0-.35.5c-.22.44-.41.89-.61,1.33l-.35-.07.12.45c-.67,0-.8.55-1.07.94a.54.54,0,0,0,.11.66.73.73,0,0,0,.73.11,2.2,2.2,0,0,0,.15-.64c0-.75.5-1.25.8-1.86a2.1,2.1,0,0,1,.29-.53,17.34,17.34,0,0,1,1.15-1.65.5.5,0,0,0,.08-.12l.47-.93c.25-.47.5-1,.77-1.42s1.34-2.24,1.56-2.6a.65.65,0,0,1,.18-.22,1.16,1.16,0,0,0,.37-.64,2.41,2.41,0,0,1,.2-.53c.21-.33.48-.63.67-1s.41-.55.78-.51c.06-.19.1-.36.16-.51s.14-.24.19-.37a8.36,8.36,0,0,1,.36-.87,1.25,1.25,0,0,1,1.06-.72.11.11,0,0,0,.07,0c.07-.32.11-.6.19-.87a.46.46,0,0,1,.43-.33c.23,0,.26.17.36.32a5.88,5.88,0,0,0,.9,1.33,2.18,2.18,0,0,1,.43.68c.17.34.27.71.43,1.06a2,2,0,0,0,.86,1A14.91,14.91,0,0,1,41,100.67a1.06,1.06,0,0,1,.36.54,3.79,3.79,0,0,0,.39.64c-.56.47-1.31.62-1.85,1.17.1,0,.15,0,.19,0a4.53,4.53,0,0,0,1.18-.6,1.71,1.71,0,0,1,.48-.18c.27-.12.61-.12.78-.45a.6.6,0,0,1,.32-.27c.62-.23,1.25-.46,1.88-.65a2,2,0,0,1,.84-.09.74.74,0,0,0,.65-.19,1.45,1.45,0,0,1,.79-.34c0,.14.08.26.12.37a.34.34,0,0,0,.35.27.38.38,0,0,0,.34-.35c0-.11,0-.21,0-.34l.23-.08a.55.55,0,0,1,.73.24,5.5,5.5,0,0,0,1.42,1.34c.42.28.4.29.15.76a3.09,3.09,0,0,1-.8.93,1.4,1.4,0,0,0-.33.39,1.84,1.84,0,0,1-1,.88,1.73,1.73,0,0,0-.61.36A11.72,11.72,0,0,0,46,106.58a2.34,2.34,0,0,1-.54.37c-.12.09-.26.16-.38.26s-.21.23-.33.34c-.3.27-.3.27-.65.07s-.4-.18-.64,0l-1.07.86a1.78,1.78,0,0,0-.32.29,2.88,2.88,0,0,1-1,.92l-.52.37a1.26,1.26,0,0,0,1.15-.29.69.69,0,0,1,.74-.25,2.23,2.23,0,0,1,.25-.31,1.33,1.33,0,0,1,.38-.18,2.83,2.83,0,0,1,.62-.21.8.8,0,0,0,.64-.38,1.75,1.75,0,0,1,.73-.7,2.51,2.51,0,0,0,1.19-.82,1,1,0,0,1,.22-.19c.19-.17.37-.34.57-.5a1.26,1.26,0,0,1,.9-.32,2.88,2.88,0,0,1,1.33.23.52.52,0,0,0,.18,0l.7.08.15-1.28v0c0-.34.14-.52.44-.66a1.05,1.05,0,0,0,.71-.76.5.5,0,0,1,.13-.25,2.13,2.13,0,0,0,.42-1.16c0-.15,0-.33.19-.39a.57.57,0,0,1,.59.07,5.59,5.59,0,0,0,.57.51,3.5,3.5,0,0,0,.47.25,2.33,2.33,0,0,0-.27-.35c-.15-.13-.33-.24-.5-.36a.5.5,0,0,1-.24-.43,4.18,4.18,0,0,0-.11-.79c-.06-.32-.21-.41-.51-.32s-.34.15-.51.22a7.79,7.79,0,0,1-1.94-1.72,2,2,0,0,0-1-.7c-.29-.08-.32-.15-.26-.45s.15-.53.18-.79.1-.53,0-.7a6.85,6.85,0,0,1-.34-.85,7,7,0,0,1-.4-1,.44.44,0,0,1,.32-.59.6.6,0,0,1,.77.79c-.08.33,0,.71.28.78a.93.93,0,0,0,1.06-.08c-.14-.22-.27-.44-.42-.64s-.23-.26-.33-.4a.23.23,0,0,1,0-.21.21.21,0,0,1,.2-.06c.22.06.44.15.7.24L50,93.58a2.3,2.3,0,0,1,.41-.28.35.35,0,0,1,.3,0c.33.23.64.48,1,.73.08-.26.29-.31.55-.29a1.64,1.64,0,0,0,.38,0,1.36,1.36,0,0,1,1.25.43,3.46,3.46,0,0,1,.94-.25,1.57,1.57,0,0,0,.87-.32.78.78,0,0,1,.47-.14,2.63,2.63,0,0,1,.69.3c.42.21.83.47,1.26.65a2,2,0,0,1,1.15,1.47,1.08,1.08,0,0,1,0,.31l-.18,0c-.38.07-.48.16-.52.44s.15.37.37.45a.35.35,0,0,1,.24.46c-.08.21,0,.35.13.52a1.26,1.26,0,0,1,.26.55.82.82,0,0,0,.51.68,1.26,1.26,0,0,1,.7.87c.08.56.52.89.73,1.36,0,0,.15.06.25.09s0-.14,0-.18c-.17-.59-.16-.59.35-.94a.56.56,0,0,0,.19-.36,1.5,1.5,0,0,0-.08-.55,1.07,1.07,0,0,1,.1-1,.43.43,0,0,1,.34-.18,1.42,1.42,0,0,1,1,.5,3.76,3.76,0,0,1,.53,1.26c.18.67.28,1.36.41,2a.66.66,0,0,1,0,.28,1.51,1.51,0,0,0,.21,1.13,2.26,2.26,0,0,1,.31.83,1.72,1.72,0,0,0,.42,1,.89.89,0,0,1,.18.91,9.36,9.36,0,0,1-1.28-.6c-.08,0-.12-.18-.18-.27a4.71,4.71,0,0,0-1-1.15c-.29-.19-.61-.33-.9-.51a1.11,1.11,0,0,1-.41-.36.62.62,0,0,0-.42-.41c-.24-.08-.47-.2-.71-.27a2.55,2.55,0,0,1-2-1.55,2.06,2.06,0,0,0-.28-.5.53.53,0,0,0-1,0,1.18,1.18,0,0,0-.12.91,11.41,11.41,0,0,0,.48,1.39.42.42,0,0,0,.4.28,5.78,5.78,0,0,1,.92.19,5.92,5.92,0,0,0,1.78.59.18.18,0,0,1,.09,0,.81.81,0,0,0,.68.08,1.31,1.31,0,0,1,1.08.25,3.27,3.27,0,0,1,.64.76c.33.46.61,1,1.25,1.08a.49.49,0,0,1,.26.19,2.41,2.41,0,0,0,1,.84,1.19,1.19,0,0,1,.45.53c.15.24.19.55.36.77A4.51,4.51,0,0,1,67.5,110a1.74,1.74,0,0,1,.11,1c-.08.39.16.7.21,1.05,0,0,.11.06.21.12a2.79,2.79,0,0,1-.1-.39c-.06-.36.14-.56.49-.49a1,1,0,0,1,.38.18c.28.18.54.38.82.57a11,11,0,0,1,1,.74,2.34,2.34,0,0,1,.64,1,5.47,5.47,0,0,0,1.14,1.66s.13,0,.23,0c-.09-.52-.46-.73-.82-1a5,5,0,0,0-.13-.65c-.06-.15-.21-.27-.27-.42a9,9,0,0,0-.84-2c-.18-.25-.24-.58-.49-.79.07-.37-.22-.57-.38-.83a5.71,5.71,0,0,1-.38-.52,1.4,1.4,0,0,0-.61-.7c-.3-.18-.61-.34-.91-.53a1.38,1.38,0,0,1-.34-.3,1.9,1.9,0,0,1-.31-1.16c-.3-.08-.31-.08-.34-.3a3.56,3.56,0,0,1-.08-.8,5.45,5.45,0,0,0-.25-2,1.2,1.2,0,0,1,0-.38,5.23,5.23,0,0,0,0-.56c0-.62.06-.83.65-1.12a5.5,5.5,0,0,1,.58-.24c0-.14,0-.33.1-.36a3.43,3.43,0,0,1,.63-.15c-.26-.22-.74-.11-.81-.51s-.18-.64.17-.9l-.24,0c-.4-.15-.42-.24-.21-.63a2.75,2.75,0,0,0,.15-.36c-.29-.22-.54-.36-.84-.09a.31.31,0,0,1-.31,0c-.05,0-.05-.19,0-.29a3.07,3.07,0,0,1,.11-.5,1.63,1.63,0,0,1,.56.06.58.58,0,0,0,.62,0c.31-.17.6-.34.6-.67.25-.21.44-.36.62-.53s.52-.64,1-.31c0,0,.13,0,.19,0a1,1,0,0,1,.44.15.5.5,0,0,0,.6.1c.28-.11.39,0,.55.28a15.25,15.25,0,0,0,1,1.73,1.94,1.94,0,0,1,.55,1.52c0,.22.14.48.27.69s.31.14.39-.07.11-.33.15-.47a5,5,0,0,1-.27-.5,15.45,15.45,0,0,0-.63-1.59,9.39,9.39,0,0,1-.5-1.87.31.31,0,0,1,0-.23.75.75,0,0,1,.27-.31A9.15,9.15,0,0,1,74,95c.4-.1.81-.15,1.21-.22.08,0,.19,0,.23-.07a1.41,1.41,0,0,1,1.3-.51.16.16,0,0,0,.09,0,.48.48,0,0,1,.49,0c.34.15.49.07.5-.29a.73.73,0,0,1,.42-.64,3.14,3.14,0,0,1,.85-.28c.25,0,.54.06.73-.22,0,0,.18,0,.27,0a1.4,1.4,0,0,0,.31-.09c.38-.18.75-.38,1.11-.57a3.66,3.66,0,0,0-.1-.73A1,1,0,0,1,81.81,90a13,13,0,0,0,1.8-1.6,3.11,3.11,0,0,1,2.39-1,1.17,1.17,0,0,1,.62.2,6,6,0,0,1,.61.52.8.8,0,0,0,.27.18c.2.07.41.1.61.15,0-.35,0-.42.21-.47s.41,0,.61.27a1.56,1.56,0,0,1,.42,1.2.82.82,0,0,0,.3.73c.39.32.43.93,1,1.12,0,0,.05,0,.05.07,0,.33.26.49.45.7s.27.39.41.57.53.65.74.91l.5-.24c.1,0,.28-.09.29-.14,0-.29.28-.31.4-.39,0-.24.07-.41.11-.62a.77.77,0,0,1-.25-.1.31.31,0,0,1-.11-.23.4.4,0,0,1,.16-.21s.12,0,.19,0a.81.81,0,0,0,.61-.31l-.83-.67a1.92,1.92,0,0,0-.22-.18A2.75,2.75,0,0,1,91.86,89a3,3,0,0,0-1.3-1.51,1.07,1.07,0,0,1-.62-.79,1.56,1.56,0,0,0-.25-.56.74.74,0,0,1,.06-.85c.39-.55.82-1.06,1.18-1.61A1.34,1.34,0,0,1,92.22,83c.34,0,.43-.1.48-.5a.43.43,0,0,0-.33-.46,1.18,1.18,0,0,0-.42,0l-1.46.43a.76.76,0,0,1-.79-.18c-.27-.28-.33-.3-.65-.15l-.29.17c-.16.1-.28.06-.42-.08s-.51-.47-.76-.72-.71-.5-.72-1a.12.12,0,0,0,0-.08c-.28-.11-.3-.39-.4-.62a.8.8,0,0,1,.17-1.07l.26-.27.64-.69c.25-.26.64-.23.9-.41a.76.76,0,0,1,1,0c.29.2.56.44.84.66a2.4,2.4,0,0,0,.39,1.19c.1.2.2.37,0,.54s-.13.27,0,.4a.77.77,0,0,0,.87.12v-.32a2.54,2.54,0,0,1,.6-.56,1.73,1.73,0,0,0,.66-.57.67.67,0,0,1,1,0c.09.07.17.18.27.18s.38.2.54.36c.31.3.51.74,1,.75.06,0,.14.07.19.13.16.24.36.2.56.1-.12-.39-.24-.76-.35-1.14a1.23,1.23,0,0,0-.33-.71c-.1-.08-.12-.25-.18-.38l.28-.26-.34-.13c-.07,0-.17-.06-.19-.12-.13-.37-.43-.7-.37-1.11a9.76,9.76,0,0,1,.33-1.42c.15-.51.56-.93.55-1.5,0-.1.09-.21.12-.31s.14-.36.18-.54c.14-.57.26-1.14.39-1.7a3.16,3.16,0,0,0,.18-1.36c0-.06,0-.12,0-.19a3.42,3.42,0,0,0,.16-.63,4.68,4.68,0,0,1,.54-2.1,1.2,1.2,0,0,0,.13-.5,4.39,4.39,0,0,1,.4-1.51c.19-.38.58-.71.87-.63a5.44,5.44,0,0,0,1.56,0,1.33,1.33,0,0,0,.9-.32,13.63,13.63,0,0,0-2.49.12,2.17,2.17,0,0,1,.33-.8,6.8,6.8,0,0,0,.53-1,3.12,3.12,0,0,1,.27-.43,1.71,1.71,0,0,0,.54-1.42.61.61,0,0,1,.22-.44c.29-.21.61-.38.92-.57l.37-.23c-.14-.19-.27-.35-.38-.51-.35-.54-.19-.84.35-1.09,0,0,.09,0,.13,0,.54-.26,1.2-.2,1.66-.66a.19.19,0,0,1,.13-.05l2.66-.37c0-.46,0-.49-.34-.42a5,5,0,0,0-1,.32,1.86,1.86,0,0,1-.73.17,1.37,1.37,0,0,0-.61.07,2.24,2.24,0,0,1-1.57.14.46.46,0,0,0-.31,0,1.15,1.15,0,0,1-.92.14c-.45-.07-.57-.21-.5-.69a2.62,2.62,0,0,1,.87-.34c.57,0,.91-.41,1.35-.63a7.86,7.86,0,0,1,1.12-.57,7.58,7.58,0,0,0,1.21-.43c.59-.29,1.16-.63,1.74-.95a.56.56,0,0,0,.23-.16c.12-.22.31-.22.53-.25a2.73,2.73,0,0,0,1-.25,4.27,4.27,0,0,1,1.06-.4l2.56-.74a4.66,4.66,0,0,1,2.09-.32,2,2,0,0,0,.56-.07c-.07-.23-.13-.44-.2-.71Z"/><path class="cls-1" d="M100.77,85.8l-.46-.5c.15-.3.12-.29.08-.66s-.1-.65.17-.85l-.19-.39c-.23-.07-.37.07-.48.23a.36.36,0,0,1-.51.11,2.21,2.21,0,0,1-.39-.37c-.35.12-.47.11-.59-.09a5.54,5.54,0,0,1-.3-.53c-.09-.18,0-.31.17-.36a.6.6,0,0,1,.19,0c.07-.35.12-.66.18-1l-.07,0-.34.36-1.46-.38c0-.23-.11-.47-.48-.47v.79a5.67,5.67,0,0,0-.85-.18,5.19,5.19,0,0,0-.8.06c0,.38.51.56.33,1-.33-.16-.57-.13-.7.22l.49.33c-.13.56-.08.68.36,1a1.24,1.24,0,0,1,.21.19l.72.73c0-.21-.06-.36-.1-.53l.4,0a3,3,0,0,1-.46-.55c-.13-.25.11-.41.27-.55.33-.3.62-.25,1,.13l-.31.44a2.93,2.93,0,0,0,.45.25c.19.06.19-.17.29-.25.42-.34.67-.3,1,.16a3.85,3.85,0,0,0-.3.27,1.88,1.88,0,0,0-.27.36c-.24.44.07.79.2,1.17a.13.13,0,0,0,.11.08c.31,0,.62.14.92,0s.32-.17.57.14c0,.12-.11.24-.17.37.22.12.21.11.37.06s.41-.22.67-.13,2.11.71,2.56.86a2.28,2.28,0,0,0,.27,0l.06-.09-2.65-1.26A.44.44,0,0,1,100.77,85.8Z"/><path class="cls-1" d="M36.7,20.43a2,2,0,0,0,.58.82.63.63,0,0,0,.7.25c.21-.07.26.11.32.27a5.19,5.19,0,0,0,.35.71.44.44,0,0,1-.25.73l-.26.08-.26.79c.83.09,1.61,0,2.39.16a3.6,3.6,0,0,1,.64.12c.2.06.39.2.6.25a7.53,7.53,0,0,0,.83.1c.07-.71.07-.71.77-.65-.18-.18-.29-.36-.48-.21s-.52.06-.77,0a5.36,5.36,0,0,0-.54-.14,1.32,1.32,0,0,1-.94-.5c-.41-.5-.79-1-1.2-1.52-.11-.15-.29-.25-.38-.4a2.14,2.14,0,0,1-.17-.56.08.08,0,0,1,0,0c-.19-.46-.36-.92-.56-1.37a2.67,2.67,0,0,0-.65-1c-.58.21-.73.73-.94,1.17s.11.58.21.85A.32.32,0,0,1,36.7,20.43Z"/><path class="cls-1" d="M66.63,115.06c-.22-.38-.5-.73-.72-1.12a7.17,7.17,0,0,0-1.46-1.55A15.7,15.7,0,0,1,63,110.61a.12.12,0,0,1,0-.08c0-.35-.26-.57-.42-.84a1.59,1.59,0,0,1-.27-.64,1.19,1.19,0,0,0-1.58-.85,1.53,1.53,0,0,0-.59,1.61s0,.07,0,.08c.34.25.57.65,1,.7a.77.77,0,0,1,.36.18,1.81,1.81,0,0,1,.28.33,2.33,2.33,0,0,0,1,.8,6.47,6.47,0,0,1,2.08,1.4.35.35,0,0,1,.12.15c.36.74,1,1.3,1.38,2a2.47,2.47,0,0,0,.79.82,1.68,1.68,0,0,1,.85.94l.46-.29a1.51,1.51,0,0,1-.35-.26A10.61,10.61,0,0,1,66.63,115.06Z"/><path class="cls-1" d="M35.11,30.64c0-.05-.08-.1-.12-.11A7,7,0,0,1,33.44,30a1.29,1.29,0,0,1-.57-.39,1.55,1.55,0,0,0-.76-.62.28.28,0,0,1-.16-.16,1.19,1.19,0,0,0-1-.52,2.29,2.29,0,0,1-.08.35c-.12.22-.19.51-.38.64a3.71,3.71,0,0,1-1.78.74c-.73.06-1.45.18-2.17.28-.16,0-.32.06-.34.28a1.94,1.94,0,0,0,1-.1,2,2,0,0,1,.87-.19c.6.08,1.2-.06,1.8,0a3.34,3.34,0,0,0,.43-.05c.23,0,.47,0,.71,0,.49,0,1,.06,1.47.05a5,5,0,0,1,1.72.25A1.32,1.32,0,0,0,35.11,30.64Z"/><path class="cls-1" d="M61,114.08a.49.49,0,0,1-.26-.27,3.2,3.2,0,0,0-1.23-1.51c-.22-.16-.4-.37-.61-.53a.68.68,0,0,1-.32-.6.4.4,0,0,0-.18-.41,1.23,1.23,0,0,1-.61-1.06.65.65,0,0,0-.56-.52.56.56,0,0,0-.54.45,1,1,0,0,0,.5,1.25.9.9,0,0,1,.47.45.73.73,0,0,0,.63.51.72.72,0,0,1,.32.19l.6.46a1.89,1.89,0,0,1,.44.35,15.73,15.73,0,0,1,1.56,1.8s.09.09.14.12a2.77,2.77,0,0,1,1.06,1l.11-.06a1.5,1.5,0,0,0-.28-.4C61.74,114.92,61.53,114.31,61,114.08Z"/><path class="cls-1" d="M34.6,114.5a1.23,1.23,0,0,0-.31,1.32c.09.29.32.41.49.61a.28.28,0,0,0,.42,0,5,5,0,0,0,.62-.5,2.27,2.27,0,0,0,.28-.45,5.05,5.05,0,0,0-.24-.72A.82.82,0,0,0,34.6,114.5Z"/><path class="cls-1" d="M8.45,58.93a.94.94,0,0,0-.61,1,1.24,1.24,0,0,0,.95.68c.57,0,.69-.33.76-.8A.85.85,0,0,0,8.45,58.93Z"/><path class="cls-1" d="M26.83,22.8a.45.45,0,0,1,0,.26,1.49,1.49,0,0,1-.07.25l.83.46c.07-.3.3-.26.53-.24s.66.07,1,.08.6,0,.9,0h1a1.94,1.94,0,0,0-.81-.31,1.4,1.4,0,0,0-1.06.13.7.7,0,0,1-.6.05,2.27,2.27,0,0,0-.74-.07.45.45,0,0,1-.4-.2,2.11,2.11,0,0,1-.42-1l.46-.34L26.79,21l.09.79c-.08,0-.13,0-.14,0a3.88,3.88,0,0,0-.26-.31c-.06-.06-.18-.13-.23-.1a.39.39,0,0,0-.17.25.65.65,0,0,0,.14.29C26.42,22.24,26.64,22.51,26.83,22.8Z"/><polygon class="cls-1" points="26.77 21 26.79 21.02 26.79 21 26.77 21"/><path class="cls-1" d="M10.11,57.88a.69.69,0,0,0-.71.76.89.89,0,0,0,.79.74c.55,0,.8-.26.81-.77A.86.86,0,0,0,10.11,57.88Z"/><path class="cls-1" d="M15.71,89c-.39,0-.76.24-.77.54,0,.63.18.87.7.89a.75.75,0,0,0,.77-.73A.74.74,0,0,0,15.71,89Z"/><path class="cls-1" d="M52.42,21.32c0,.17.22.38.38.52a2.23,2.23,0,0,1,.59.67,2.72,2.72,0,0,0,.34.42l.1-.1c-.11-.52-.57-.91-.61-1.47,0-.05-.07-.1-.12-.14A2.67,2.67,0,0,1,52,20a1.94,1.94,0,0,0-.44-.55c-.06-.06-.19-.05-.39-.1a2.45,2.45,0,0,0,.62,1C52.08,20.63,52.44,20.83,52.42,21.32Z"/><path class="cls-1" d="M23.82,37a.6.6,0,0,0,.45-.77.76.76,0,0,0-.69-.67l-.36.24a.67.67,0,0,0-.13.93A.61.61,0,0,0,23.82,37Z"/><path class="cls-1" d="M89.59,21.51l-.76-.22c-.13-.46-.24-.88-.36-1.32-.22.17-.14.37-.16.55s0,.3,0,.41-.23.2-.34.3c.15.33.31.67.47,1C89.36,22,89.36,22,89.59,21.51Z"/><path class="cls-1" d="M24.59,72.12a.54.54,0,0,0-.56.36c-.08.3-.13.61-.18.85s.09.42.26.46.48-.08.5-.27.15-.35.31-.48a.47.47,0,0,0,.2-.5A.71.71,0,0,0,24.59,72.12Z"/><path class="cls-1" d="M38.81,26.54l.55,1.59a2.16,2.16,0,0,1,.13.41,9.45,9.45,0,0,1,.07,1.07c0,.22.11.31.42.4-.33-.44-.22-.86-.29-1.26s.05-.87-.35-1.18c0,0,0-.09,0-.14,0-.59-.11-1.19-.16-1.79,0-.21,0-.41-.26-.5-.19.12-.17.28-.13.47s0,.43.06.65A.88.88,0,0,0,38.81,26.54Z"/><path class="cls-1" d="M31.51,72.23a.64.64,0,0,0,.61-.66.49.49,0,0,0-.55-.51.75.75,0,0,0-.71.68A.58.58,0,0,0,31.51,72.23Z"/><path class="cls-1" d="M64.22,109.9c0-.16,0-.34-.08-.45a4.1,4.1,0,0,0-.6-.65.41.41,0,0,0-.56.08.37.37,0,0,0,0,.56A1.33,1.33,0,0,0,64.22,109.9Z"/><path class="cls-1" d="M12,98.39a.64.64,0,0,0-.58.64.44.44,0,0,0,.49.45.67.67,0,0,0,.61-.51A.62.62,0,0,0,12,98.39Z"/><path class="cls-1" d="M17.57,55.49c-.41.18-.8.4-1.27.63.2.22.31.27.49.17s.66-.31,1-.52.5-.31.81-.12l.21-.53A2.28,2.28,0,0,0,17.57,55.49Z"/><path class="cls-1" d="M97,51.71l-.29.25.32.43.62-.07h0c.12-.12.27-.21.33-.35s-.08-.24-.2-.32C97.51,51.42,97.35,51.43,97,51.71Z"/><path class="cls-1" d="M28.55,54.17l-.28-.35h-.19c-.37,0-.44,0-.47.4,0,.17,0,.34,0,.57.28,0,.53,0,.77-.1A.3.3,0,0,0,28.55,54.17Z"/><path class="cls-1" d="M46.34,103.55a.43.43,0,0,0,.32.14.78.78,0,0,0,.66-.77s-.06-.19-.15-.24a.39.39,0,0,0-.35,0,3.31,3.31,0,0,0-.5.49A.25.25,0,0,0,46.34,103.55Z"/><path class="cls-1" d="M.51,67.82a.56.56,0,0,0-.51.53c0,.19.27.41.55.44a.57.57,0,0,0,.52-.47C1.08,68.17.7,67.83.51,67.82Z"/><path class="cls-1" d="M35.43,35.66a4.2,4.2,0,0,0,1,.28l.83.26a1.69,1.69,0,0,0-.35-.31c-.29-.11-.61-.17-.91-.27a6.43,6.43,0,0,1-1.69-.6h0c-.16,0-.24,0-.25.21a1,1,0,0,0,.64.24A2.67,2.67,0,0,1,35.43,35.66Z"/><path class="cls-1" d="M12.48,65.24c-.29,0-.44.12-.44.37a.53.53,0,0,0,.47.56.44.44,0,0,0,.46-.44A.54.54,0,0,0,12.48,65.24Z"/><path class="cls-1" d="M12.66,51.2c-.19,0-.53.23-.54.39s.27.48.49.51a.42.42,0,0,0,.48-.36A.57.57,0,0,0,12.66,51.2Z"/><path class="cls-1" d="M19.72,50.35a.35.35,0,0,0,.35-.42.37.37,0,0,0-.43-.28.83.83,0,0,0-.8.62A5.86,5.86,0,0,0,19.72,50.35Z"/><path class="cls-1" d="M87.79,79.37l-.41-.06c0,.37-.08.71-.12,1a1.49,1.49,0,0,0,.38.14c.24,0,.52-.31.38-.42S87.91,79.64,87.79,79.37Z"/><path class="cls-1" d="M48.68,112.66a1,1,0,0,0,.61.84c.18.07.27,0,.35-.2l-.62-1C48.69,112.49,48.67,112.51,48.68,112.66Z"/><path class="cls-1" d="M100.44,69.68a.5.5,0,0,0-.25.35c0,.17.16.24.34.26.43,0,.65-.29,1-.49A1.18,1.18,0,0,0,100.44,69.68Z"/><path class="cls-1" d="M5.6,73a.59.59,0,0,0-.44.48.46.46,0,0,0,.44.36A.43.43,0,0,0,6,73.41.41.41,0,0,0,5.6,73Z"/><path class="cls-1" d="M30.58,74.6c-.29,0-.53.16-.53.35a.42.42,0,0,0,.42.43.52.52,0,0,0,.45-.41A.34.34,0,0,0,30.58,74.6Z"/><path class="cls-1" d="M17.31,62.71c0-.22-.19-.52-.38-.53a.44.44,0,0,0-.42.37.39.39,0,0,0,.37.46C17.08,63,17.3,62.87,17.31,62.71Z"/><path class="cls-1" d="M42.48,6.05a.47.47,0,0,0,.34-.17.51.51,0,0,0,0-.64c-.44,0-.62.1-.61.45A.34.34,0,0,0,42.48,6.05Z"/><path class="cls-1" d="M93.25,18.73c0-.29.26-.37.4-.55L93,17.67a1.66,1.66,0,0,0,0,1.16C93.08,18.8,93.25,18.76,93.25,18.73Z"/><path class="cls-1" d="M34.15,23.88a6.78,6.78,0,0,0-2.76-.21c.82.09,1.63.19,2.45.27A1.13,1.13,0,0,0,34.15,23.88Z"/><path class="cls-1" d="M56,97.51l-1-.77a.25.25,0,0,0-.39,0c0,.16,0,.32.06.42l1.27.37Z"/><path class="cls-1" d="M17.61,64.37a.48.48,0,0,0-.41.39.45.45,0,0,0,.47.42c.19,0,.31-.15.31-.4A.4.4,0,0,0,17.61,64.37Z"/><path class="cls-1" d="M16.77,93.79a.33.33,0,0,0-.47.08.55.55,0,0,0,0,.68.57.57,0,0,0,.58-.31A.3.3,0,0,0,16.77,93.79Z"/><path class="cls-1" d="M29.5,87.56c.11-.19.23-.37.37-.6-.35,0-.46.21-.63.38a6,6,0,0,1-.55.41C29.19,88,29.25,88,29.5,87.56Z"/><path class="cls-1" d="M23.57,82.36h0l0,0h0Z"/><path class="cls-1" d="M22.28,83a1.4,1.4,0,0,0,1.29-.63c-.26,0-.51.08-.76.14S22.28,82.63,22.28,83Z"/><path class="cls-1" d="M15.47,79a.41.41,0,0,0,.42-.36.33.33,0,0,0-.34-.32.4.4,0,0,0-.39.35A.3.3,0,0,0,15.47,79Z"/><path class="cls-1" d="M19.05,55a1.36,1.36,0,0,0,1.27-.5C19.88,54.56,19.36,54.43,19.05,55Z"/><path class="cls-1" d="M31.32,105.79c.39.33.48.31.71-.15C31.71,105.19,31.65,105.2,31.32,105.79Z"/><path class="cls-1" d="M52.83,98.86c0,.09-.17.2-.19.33a.33.33,0,0,0,.29.37c.2,0,.26-.14.26-.32A.34.34,0,0,0,52.83,98.86Z"/><path class="cls-1" d="M95.2,92.78c.34.16.88.11.9-.1s-.1-.2-.21-.4C95.64,92.46,95.42,92.61,95.2,92.78Z"/><path class="cls-1" d="M56.81,94.24a.53.53,0,0,0-.19.29,1.33,1.33,0,0,0,.06.4l.65-.19a3.38,3.38,0,0,0-.27-.35C57,94.32,56.85,94.22,56.81,94.24Z"/><path class="cls-1" d="M56.27,104.64a2.59,2.59,0,0,0-.74-.77s-.12,0-.19,0a9,9,0,0,0,1.3,1.32A4.7,4.7,0,0,1,56.27,104.64Z"/><path class="cls-1" d="M37.24,24.34A1.77,1.77,0,0,0,35.76,24c.25.09.51.1.6.23C36.64,24.65,36.89,24.38,37.24,24.34Z"/><path class="cls-1" d="M50.11,110.72c-.17,0-.29.13-.3.44,0,0,.1.18.2.22s.3-.18.31-.39A.23.23,0,0,0,50.11,110.72Z"/><path class="cls-1" d="M17.24,48.72c0-.12,0-.31,0-.36-.25-.18-.48,0-.79.15l.7.28Z"/><path class="cls-1" d="M68.87,101l.55.45c.41-.47.41-.47.35-.65C69.52,101,69.52,101,68.87,101Z"/><path class="cls-1" d="M13.29,94.67a.26.26,0,0,0,.29.24c.19,0,.32-.13.3-.3s-.13-.2-.17-.26C13.45,94.34,13.26,94.51,13.29,94.67Z"/><path class="cls-1" d="M41.62,15.81a.31.31,0,0,0,.17-.23,1.47,1.47,0,0,0-.18-.41c-.31.1-.33.29-.24.49S41.55,15.83,41.62,15.81Z"/><path class="cls-1" d="M35.65,30c-.27-.18-.53-.38-.8-.55s-.24,0-.25.2l1,.42Z"/><path class="cls-1" d="M38.31,110.87c.09.18.26.11.45,0-.06-.17-.13-.36-.2-.59C38.27,110.48,38.22,110.68,38.31,110.87Z"/><path class="cls-1" d="M25.61,50.6a.41.41,0,0,0-.14-.31c-.15-.12-.26,0-.41.35C25.39,50.77,25.59,50.76,25.61,50.6Z"/><path class="cls-1" d="M22.58,53.23l-.87.33c.05.12.08.2.13.3C22.1,53.69,22.42,53.66,22.58,53.23Z"/><path class="cls-1" d="M57.65,98.46,56.7,98l-.06,0s0,0,0,0c.21.15.4.31.62.45a2.22,2.22,0,0,0,.39.13A1.26,1.26,0,0,0,57.65,98.46Z"/><path class="cls-1" d="M103.4,63.22a.66.66,0,0,0,.82.43C104,63.53,103.82,63.18,103.4,63.22Z"/><path class="cls-1" d="M99.51,81.59c.19.22.14.69.7.58l-.62-.67Z"/><path class="cls-1" d="M26.81,61.43c.32.33.32.33.63.08C27.26,61.32,27.09,61.2,26.81,61.43Z"/><path class="cls-1" d="M74.88,100.85c-.09,0-.17.13-.26.2a1.66,1.66,0,0,0,.3.24s.11-.11.21-.2C75,101,75,100.85,74.88,100.85Z"/><path class="cls-1" d="M43.38,7.39s.15-.1.3-.2c-.14-.11-.23-.22-.33-.24s-.21.14-.19.19A.42.42,0,0,0,43.38,7.39Z"/><path class="cls-1" d="M1.56,33.25c-.08,0-.2.14-.19.2s.12.19.23.34c.1-.15.18-.23.19-.32S1.71,33.21,1.56,33.25Z"/><path class="cls-1" d="M20.51,37.42c-.11-.33-.11-.33-.58-.29C20.12,37.34,20.21,37.59,20.51,37.42Z"/><path class="cls-1" d="M53.29,5a1.19,1.19,0,0,0,.83.39A.77.77,0,0,0,53.29,5Z"/><path class="cls-1" d="M101.41,85.56a1,1,0,0,0,.32.12l.1-.11a1.37,1.37,0,0,0-.22-.3.26.26,0,0,0-.24,0A.24.24,0,0,0,101.41,85.56Z"/><path class="cls-1" d="M54.69.29h.61C55-.1,55-.09,54.69.29Z"/><path class="cls-1" d="M36.56,31.14l-1.12-.45-.06.1,1.14.44A.36.36,0,0,0,36.56,31.14Z"/><path class="cls-1" d="M32.6,7.75c-.22-.42-.28-.43-.55-.09C32.24,7.77,32.4,7.86,32.6,7.75Z"/><path class="cls-1" d="M91.42,21.19,91,21.5C91.36,21.76,91.38,21.75,91.42,21.19Z"/><path class="cls-1" d="M115.12,55.05H115c0,.37.07.75.1,1.12A2.82,2.82,0,0,0,115.12,55.05Z"/><path class="cls-1" d="M24.27,104.07c-.19.15-.07.29.06.46.22-.13.32-.27.19-.47A.25.25,0,0,0,24.27,104.07Z"/><path class="cls-1" d="M88.43,81.09l-.27-.49c-.13.19-.27.32-.12.49A.24.24,0,0,0,88.43,81.09Z"/><path class="cls-1" d="M83.13,24.34a2.26,2.26,0,0,0-.63.59A.73.73,0,0,0,83.13,24.34Z"/><path class="cls-1" d="M39.86,30.22c-.27.18,0,.41-.06.61C40.11,30.63,40.11,30.63,39.86,30.22Z"/><path class="cls-1" d="M38.92,103.52a.91.91,0,0,0,.77-.43A1,1,0,0,0,38.92,103.52Z"/><path class="cls-1" d="M106.74,50.28c.2-.05.41-.12.43-.38,0-.06-.11-.13-.17-.2C106.89,49.94,106.81,50.11,106.74,50.28Z"/><path class="cls-1" d="M38.12,103.77l-.57.37C38,104.17,38,104.17,38.12,103.77Z"/><path class="cls-1" d="M58.29,99.3l-.37-.45C57.82,99.36,57.87,99.41,58.29,99.3Z"/><path class="cls-1" d="M10.07,72.24a.68.68,0,0,0,.69-.32l-.72.22Z"/><path class="cls-1" d="M55.64,103.19c.08,0,.14-.11.24-.21a2.92,2.92,0,0,1-.23-.19c-.06.08-.15.15-.17.24S55.61,103.21,55.64,103.19Z"/><path class="cls-1" d="M17.5,51c.06,0,.14-.08.27-.16-.13-.09-.2-.18-.29-.19a.28.28,0,0,0-.15.18A.29.29,0,0,0,17.5,51Z"/><path class="cls-1" d="M87.31,4.56H87.2c0,.16,0,.31,0,.5L87.5,5Z"/><path class="cls-1" d="M54.69,103.92c-.16.32-.16.32.17.43C55,104.14,54.91,104,54.69,103.92Z"/><path class="cls-1" d="M54.5,103.05a1.25,1.25,0,0,0-.64-.49A1.07,1.07,0,0,0,54.5,103.05Z"/><polygon class="cls-1" points="53.86 102.56 53.85 102.55 53.84 102.55 53.85 102.55 53.86 102.56"/><path class="cls-1" d="M84.12,23.48c-.25-.13-.25-.13-.47.37l.43-.29A.3.3,0,0,0,84.12,23.48Z"/><path class="cls-1" d="M57.61,105.84l-.53-.43C57.3,105.93,57.3,105.93,57.61,105.84Z"/><path class="cls-1" d="M24.35,81.8l-.73.53A.94.94,0,0,0,24.35,81.8Z"/><path class="cls-1" d="M24.35,81.8l0,0,0,0h0Z"/><path class="cls-1" d="M42.89,105.16c-.14.13-.23.25-.13.38s.17,0,.34.09Z"/><path class="cls-1" d="M36.46,110.16c-.15.1-.22.22-.07.37a.17.17,0,0,0,.17,0c.12-.13.07-.25-.05-.36Z"/><path class="cls-1" d="M68.14,101.92l.27-.14c-.12-.15-.18-.31-.44-.36Z"/><path class="cls-1" d="M15.16,62.1h-.37v.18l.37,0Z"/><path class="cls-1" d="M73.12,109.25c0,.29,0,.29.41.46l-.31-.49Z"/><path class="cls-1" d="M62.75,100a1.35,1.35,0,0,0,0,.22l.42-.28-.37-.1Z"/><path class="cls-1" d="M54.88,103.38l.45.47C55.29,103.5,55.26,103.45,54.88,103.38Z"/><polygon class="cls-1" points="55.33 103.85 55.33 103.86 55.34 103.86 55.34 103.86 55.33 103.85"/><path class="cls-1" d="M40.17,26a.45.45,0,0,0-.11-.17c-.06,0-.14.1-.16.17s.07.1.15.19C40.1,26.05,40.17,26,40.17,26Z"/><path class="cls-1" d="M100.45,44.47a.83.83,0,0,0,0-.15l-.47-.08s0,0,0,.08Z"/><path class="cls-1" d="M95.07,86.34c-.17,0-.2.17-.12.32.16,0,.24-.09.22-.24S95.1,86.33,95.07,86.34Z"/><path class="cls-1" d="M26.14,58.77c-.13-.09-.26-.12-.4.12h.41Z"/><path class="cls-1" d="M46.14,102c-.1.19,0,.28.24.42a3.45,3.45,0,0,0-.11-.36S46.19,102,46.14,102Z"/><path class="cls-1" d="M36.76,104.56l-.44.29C36.65,104.83,36.65,104.83,36.76,104.56Z"/><path class="cls-1" d="M61.57,11.75l-.11,0c0,.09.07.18.11.29C61.69,11.87,61.69,11.87,61.57,11.75Z"/><path class="cls-1" d="M35.66,105.4l-.32.24C35.54,105.7,35.72,105.73,35.66,105.4Z"/><path class="cls-1" d="M32.4,84.2l-.21.23.05,0,.21-.24Z"/><path class="cls-1" d="M27.72,77.44c-.1,0-.16-.11-.23-.11s-.07.08-.11.13.11.1.18.11S27.64,77.51,27.72,77.44Z"/><path class="cls-1" d="M11,20.58c0-.1,0-.19-.05-.29H10.8c0,.1,0,.21,0,.31Z"/><path class="cls-1" d="M54.35,100.73h.12v-.25h-.08A2.17,2.17,0,0,0,54.35,100.73Z"/><path class="cls-1" d="M51.29,3.88a1,1,0,0,0-.14-.15L51,3.85l.17.15C51.25,3.94,51.3,3.89,51.29,3.88Z"/><path class="cls-1" d="M33.25,83.48l.31-.28C33.37,83.21,33.25,83.28,33.25,83.48Z"/><path class="cls-1" d="M53,95.11l0,.12.21,0a.43.43,0,0,1,0-.11Z"/><path class="cls-1" d="M19.88,29s-.07-.07-.11-.07-.06.05-.08.08l.11.1Z"/><path class="cls-1" d="M56.13,101.55a.44.44,0,0,0-.05-.15s-.1,0-.1.07,0,.1,0,.19C56.07,101.6,56.13,101.58,56.13,101.55Z"/><path class="cls-1" d="M16.55,78.6l.23,0a.49.49,0,0,0,0-.12.79.79,0,0,0-.22,0S16.56,78.56,16.55,78.6Z"/><path class="cls-1" d="M115,53.78v.31C115,54,115.23,53.88,115,53.78Z"/><polygon class="cls-1" points="37.24 36.21 37.22 36.2 37.22 36.2 37.22 36.2 37.24 36.21"/><path class="cls-1" d="M37.74,36.21h-.5l.48.12S37.73,36.25,37.74,36.21Z"/><path class="cls-1" d="M21.51,100.76a.29.29,0,0,0,.1.12s.06,0,.12-.09l-.14-.1S21.5,100.75,21.51,100.76Z"/></g></g></svg>